<svg xmlns="http://www.w3.org/2000/svg"><defs><font horiz-adv-x="1067"><font-face units-per-em="2048" ascent="1638" descent="-410"/><glyph horiz-adv-x="2048"/><glyph horiz-adv-x="2048"/><glyph horiz-adv-x="2048"/><glyph horiz-adv-x="528"/><glyph horiz-adv-x="528"/><glyph horiz-adv-x="528"/><glyph unicode="!" horiz-adv-x="425" d="M176 0v238h156v-238h-156zm12 629v829h131v-829l-18-269h-96z"/><glyph unicode=""" horiz-adv-x="731" d="M104 1522h170l-53-596h-61zm353 0h170l-54-596h-61z"/><glyph unicode="#" horiz-adv-x="1366" d="M86 530v111h358l27 199h-342v116h356l66 494h129l-70-494h205l64 494h122l-67-494h344v-116h-358l-27-199h344v-111h-358l-72-530h-127l78 530h-207l-78-530h-119l74 530h-342zm479 111h207l27 199h-205z"/><glyph unicode="$" horiz-adv-x="1236" d="M53 365l146 14q33-71 94.5-131.5t132.5-89.5q57-23 117-31v582q-214 57-310 153t-94 223q0 71 26.5 136t76.5 110q36 34 84 58.5t94 35.5 74 15.5 49 5.5v127h119v-127q87-5 171-43.5t138-102.5q71-96 94-188l-137-14q-22 61-57 106t-74 67.5-71 32.5-64 13v-506q2 0 30-7.5t50.5-14.5 57-18.5 69.5-26 67-31.5q194-103 194-297 0-34-7.5-72.5t-27-88.5-64-99.5-107.5-85.5q-118-65-262-70v-188h-119v188q-43 4-78 11t-90.5 26-111.5 58.5-105 97.5q-61 69-105 172zm221 727q0-97 84-160 24-19 77-46.5t108-37.5v473q-58 0-119-23-46-18-77.5-45t-46-57-20.5-55-6-49zm388-969q89 0 159 31 51 22 87 56.5t53 72 23.5 66.5 6.5 54q0 104-86 166-31 24-97 53.5t-146 47.5v-547z"/><glyph unicode="%" horiz-adv-x="1792" d="M63 993q0 33 2.5 64t13.5 100.5 43.5 134 82.5 107.5q74 63 182 63 94 0 158-45 73-51 118.5-162t41.5-278q0-37-4-81t-29-126-68-137q-85-107-221-107-88 0-150 41-74 48-122 154.5t-48 271.5zm105-2q0-27 1.5-60.5t18-110 45.5-120.5q18-30 55.5-56t96.5-26q53 1 93 26.5t62 63 36 89 18.5 94 5.5 88.5q3 183-55.5 289t-159.5 104q-42 0-87.5-24.5t-78.5-87.5q-20-38-35.5-109t-15.5-160zm334-1034l719 1577 86-39-723-1575zm585 492q0 262 119 387 79 84 205 84 130-2 209-91 109-128 109-395-8-144-42-234-36-96-98-151-77-65-182-65-89 0-154 45-71 46-118.5 153t-47.5 267zm105 4q0-98 22-189 27-112 95-160 40-28 100-28 53 0 93.5 25.5t62.5 62.5 36 89 18 94.5 5 88.5q2 157-43 264-32 72-78.5 101.5t-93.5 29.5q-57 0-106-40-61-52-87-147t-24-191z"/><glyph unicode="&" horiz-adv-x="1323" d="M113 385q0 60 17 117.5t39.5 98 54 78 51.5 56.5 40 35q28 24 86 61.5t74 49.5q-117 152-117 309 0 127 79 205t208 78q122 0 202.5-67t80.5-187q0-98-62-189-28-41-66-77.5t-67.5-57.5-85.5-57q29-47 88.5-135t77.5-115q90-134 148-203 22 59 33.5 111t14 79 3.5 72h129q-1-80-21-156t-39-120q-11-29-43-90 8-10 26-32t26-32q45-57 82.5-82.5t97.5-28.5v-124q-89 2-156 43-26 13-63 47-19 18-50.5 53.5t-39.5 44.5q-16-21-26.5-33.5t-35-34-57.5-41.5q-117-77-279-77-168 0-287 86-163 122-163 315zm141 6q0-76 31-131 14-24 34-47.5t54-51 84.5-44 109.5-15.5q44 0 90 9.5t113.5 48 120.5 102.5q-96 133-158 225-167 255-190 287-43-26-70-45-219-147-219-338zm229 799q0-16 3-33.5t6-31 11.5-33 12.5-29.5 16-32 16-28.5 18-30 16-26.5q138 64 194 166 25 50 25 98 0 20-6.5 42t-21.5 47.5-48 42-78 16.5q-41 0-72.5-13t-48-31-27-43-13.5-43.5-3-37.5z"/><glyph unicode="'" horiz-adv-x="378" d="M104 1522h170l-53-596h-61z"/><glyph unicode="(" horiz-adv-x="630" d="M88 666q0 205 68 409 76 228 233 395 46 47 82.5 78.5t108.5 83.5l49-67q-75-65-111-102t-76-91q-98-132-151-313.5t-53-384.5q0-332 145-619 56-110 125-190 56-67 129-121l-51-76q-243 184-370.5 440.5t-127.5 557.5z"/><glyph unicode=")" horiz-adv-x="641" d="M16 1565l52 75q241-186 368-441t127-554q0-207-69-414-75-223-236-395-70-73-190-160l-50 66q80 70 114.5 105t72.5 87q100 133 153.5 316t53.5 387q0 331-144 616-56 107-123 191-32 38-56.5 61t-72.5 60z"/><glyph unicode="*" horiz-adv-x="731" d="M68 1202l28 88 217-57v223h99v-227l221 74 31-84-226-80 137-187-75-55-140 184-124-184-78 55 127 189z"/><glyph unicode="+" horiz-adv-x="1482" d="M193 539v123h487v485h123v-485h487v-123h-487v-488h-123v488h-487z"/><glyph unicode="," horiz-adv-x="342" d="M90 0v238h162v-201q0-125-17-198.5t-77-162.5l-68 48q47 76 62.5 131t15.5 145h-78z"/><glyph unicode="-" horiz-adv-x="698" d="M78 541v123h543v-123h-543z"/><glyph unicode="." horiz-adv-x="342" d="M90 0v238h162v-238h-162z"/><glyph unicode="/" horiz-adv-x="980" d="M20 0l789 1446h152l-785-1446h-156z"/><glyph unicode="0" horiz-adv-x="1193" d="M90 721v42l4 71.5 11 100.5 23 109 38.5 118.5 60 108 84.5 97.5q117 107 289 107 211 0 340-156 166-203 166-627-16-398-193-586-127-133-319-133-142 0-242 70-114 78-188 249t-74 429zm137 6q0-133 20-242t46-172q27-73 80-129 85-96 225-96 144 0 233 105 133 153 138 503 0 297-82 465-13 24-22.5 40t-37 50-56 55-75 38.5-98.5 17.5q-119 0-207-88-90-90-127-239t-37-308z"/><glyph unicode="1" horiz-adv-x="1193" d="M328 1116l2 111q66 2 123 18 139 41 139 180v21h125v-1446h-125l-2 1174q-25-22-86-39-79-19-139-19h-37z"/><glyph unicode="2" horiz-adv-x="1193" d="M121 1053q0 88 35 178 15 33 37 64t60 64.5 84.5 58.5 113.5 41 143 16q26 0 51.5-2t71-9 87-24 86-42.5 84-69.5 66.5-101q45-104 45-213 0-163-98-318-49-78-126-160t-161-150-122.5-97-77.5-56q-44-32-91-62t-73-44l-25-14h725v-113h-913v113l29 18q93 59 131 84 121 83 249 186 3 3 31.5 26.5t59 49.5 71 63 70.5 68q186 194 186 414 0 98-41 176-30 56-77 93t-98 51.5-82.5 19-59.5 4.5q-102 0-184.5-44t-128.5-130q-39-75-39-152 0-130 100-245l-168 20q-51 128-51 238z"/><glyph unicode="3" horiz-adv-x="1193" d="M88 414l137 45q0-76 15-135 32-120 127-177t225-57q82 0 145 20.5t99.5 51.5 60 73.5 31.5 80 8 77.5q0 159-100 238-38 29-90 44t-88 17-101 2h-201v113h172q62 0 136 8 87 12 135 42.5t75 74.5q39 62 39 145 0 69-28 127-39 81-117.5 121.5t-173.5 40.5q-65 0-120-18t-90-44-61.5-61-39.5-64-19-57q-6-24-6-78l-143 39q34 131 93.5 218t168.5 133q100 41 217 41 193 0 319-103 129-103 129-299 0-98-39.5-172.5t-123.5-109.5q-52-22-152-35 92-4 164-37 31-14 59.5-36.5t58-59.5 47-94 17.5-126q0-106-43-194-58-119-177-177.5t-263-58.5q-87 0-160.5 19t-124 51.5-84 64.5-55.5 68q-64 99-78 238z"/><glyph unicode="4" horiz-adv-x="1193" d="M115 362v105l635 979h135v-971h225v-113h-225v-362h-125v362h-645zm141 113h504v768z"/><glyph unicode="5" horiz-adv-x="1193" d="M109 381l133 39q0-38 6-68 26-117 92-180 93-86 244-86 89 0 159 33 40 19 71.5 47.5t51.5 57.5 34.5 65 21.5 63.5 11 60 4.5 47.5.5 32q0 230-139 335-87 66-203 66-119 0-205-80-32-26-55-61-35-61-53-136l-105 13 25 817h764v-121h-645l-29-498q23 49 80 99 98 75 241 75 212 0 342-151 117-136 117-354 0-102-22-177-7-26-17.5-53.5t-34-68.5-54-76-79.5-69-108-54q-78-27-170-27-180 0-299 84-149 111-180 326z"/><glyph unicode="6" horiz-adv-x="1193" d="M117 678q0 413 155 612 143 185 390 185 89 0 169-27 195-67 265-293l-135-47q0 13-8 50.5t-23 66.5q-70 135-264 135-105 0-167.5-32t-107.5-83q-44-52-74.5-124t-50.5-193q-15-87-18-158 58 89 155 143 100 56 238 56 177 0 301-99 53-41 90-104 78-126 78-299 0-141-57-254-33-64-83-111t-97-71-101.5-38-87-17-63.5-3q-179 0-297 95-101 79-154 224.5t-53 385.5zm137-168q0-95 39-191 93-233 332-233 76 0 132.5 19t104.5 67q118 113 113 309 0 83-25 156-35 107-119.5 164t-199.5 57q-60 0-129-20-50-16-92-43t-68.5-58-42-56.5-23.5-47.5q-22-55-22-123z"/><glyph unicode="7" horiz-adv-x="1193" d="M129 1001v445h918v-121q-149-203-218-334-48-88-88.5-181.5t-67-166.5-49.5-165-34.5-142.5-23.5-135.5-14.5-107.5-10.5-92.5h-138q34 520 316 1004 69 121 211 321h-684v-324h-117z"/><glyph unicode="8" horiz-adv-x="1193" d="M92 403q0 122 70 215 29 40 87.5 86t139.5 66q-40 11-82 39-160 108-160 285 0 88 39 166 19 39 51 74t80.5 68 122.5 53 162 20q25 0 50.5-1.5t79.5-11.5 99-28 95-56 82-90q53-84 53-188 0-125-66-211-22-30-65-62-59-44-119-57 43-12 80-31 23-13 45-28.5t54-47 55-67.5 40-89 17-112q0-93-43-182-22-43-56.5-82t-88.5-76.5-135-59.5-179-22q-140 0-257.5 50t-186.5 159q-64 97-64 221zm137 0q0-145 109-231 100-82 260-82 89 0 156 23 97 33 154.5 107.5t58.5 174.5q2 77-35 148-25 45-65.5 78.5t-78 49.5-81.5 25.5-66.5 11-42.5 1.5q-56 0-108.5-11.5t-100-36-83-60-56.5-86.5-21-112zm47 684q0-105 80-178 94-88 248-88 67 0 125 17 20 5 41.5 14.5t51.5 30.5 53 47.5 39.5 70 15.5 95.5q-1 47-17 90t-51 84.5-102 66.5-158 25-158-27.5-101.5-71-50.5-88-16-88.5z"/><glyph unicode="9" horiz-adv-x="1193" d="M82 973q0 121 39 215 14 35 33.5 68.5t56.5 75 83.5 72 116.5 51 152 20.5q265 0 398-193 118-172 118-518 0-246-57-426-120-365-490-365-332 0-430 320l142 51q7-43 11-63.5t17.5-51.5 34.5-55q78-88 232-88 151 0 243 80 46 36 82 104 71 138 84 432-50-103-160-165-113-58-241-58-129 0-236 60-62 34-107.5 85.5t-68 98.5-35.5 102.5-15.5 86-2.5 61.5zm137 2q0-166 74-262 36-47 104-83t170-36q101 0 174 35 56 27 103.5 75t70.5 103q23 53 23 129 2 52-12 115-6 30-17.5 63t-40 81-66 84-101 62.5-140.5 26.5q-159 0-248-102-94-103-94-291z"/><glyph unicode=":" horiz-adv-x="425" d="M176 0v238h162v-238h-162zm0 721v237h162v-237h-162z"/><glyph unicode=";" horiz-adv-x="425" d="M176 0v238h162v-236q0-104-20-172.5t-76-153.5l-66 48q47 77 62.5 131t15.5 145h-78zm0 721v237h162v-237h-162z"/><glyph unicode="<" horiz-adv-x="1482" d="M233 524v140l955 489v-131l-838-426 838-422v-133z"/><glyph unicode="=" horiz-adv-x="1482" d="M203 354v119h1077v-119h-1077zm0 361v121h1077v-121h-1077z"/><glyph unicode=">" horiz-adv-x="1482" d="M297 35v133l838 426-838 422v131l952-483v-138z"/><glyph unicode="?" horiz-adv-x="980" d="M137 1085q0 103 35 179 25 56 67.5 97t82.5 61 88 32 74.5 14 52.5 2q199 0 315-135 94-108 94-260 0-131-63-231-21-34-61.5-78t-60.5-62.5-73-66.5q-87-83-102-113-23-47-23-137v-41h-127v72q0 57 6.5 97t30.5 77q16 26 51 61 25 27 78.5 76t59.5 55q72 70 112.5 139t40.5 152q0 37-14 88-8 24-19 46t-33 49-50 46-71.5 32.5-95.5 13.5q-57 0-110-19-80-31-120-100.5t-40-157.5q0-106 51-199l-153 46q-23 111-23 165zm285-1085v238h160v-238h-160z"/><glyph unicode="@" horiz-adv-x="1835" d="M141 477q0 193 73.5 373t198.5 313.5 301 214 371 80.5q275 0 442-158.5t167-431.5q0-131-39-268-17-57-44.5-116.5t-68-120.5-87.5-108.5-107-77.5-121-30q-87 0-126.5 51t-37.5 140q-59-85-137.5-136.5t-171.5-51.5q-67 0-118.5 27.5t-81.5 74-45 103-15 120.5q0 146 61 288t172 222q97 70 195 70 172 0 243-195l33 148h121l-66-299q-4-16-16.5-69t-17.5-77.5-13-67.5-11-78.5-3-70.5q0-38 19.5-69t56.5-31q48 0 114 61 101 91 159 250.5t58 308.5q0 236-142.5 369t-379.5 133q-174 0-331.5-74t-269-196.5-177.5-284.5-66-334q0-200 92.5-347t248-220.5 352.5-73.5q191 0 372 79t320 218l55-65q-170-157-352-240.5t-395-83.5q-163 0-306 51t-249.5 144-168 231.5-61.5 304.5zm492 6q0-94 44.5-158.5t133.5-64.5q73 0 135 47.5t99 119 57 149 20 145.5q0 93-49 159t-139 66q-71 0-131-48.5t-95.5-122-55-150.5-19.5-142z"/><glyph unicode="A" horiz-adv-x="1323" d="M20 0l590 1446h115l575-1446h-149l-166 436h-647l-166-436h-152zm363 547h561l-278 739z"/><glyph unicode="B" horiz-adv-x="1366" d="M166 0v1446h600q61 0 94-2 207-8 307-144 68-96 68-215-7-176-129-256-67-46-131-51 148-29 227.5-124.5t79.5-245.5q0-34-5.5-70.5t-23-91.5-61-106-107.5-85q-25-13-51.5-23t-61-15.5-55-9.5-64-5.5-55.5-1.5h-632zm137 125h369q217 0 268 12 30 6 60.5 21.5t65.5 44.5 57 81 22 119q0 26-4.5 53t-18 65.5-45 76-78.5 64.5q-42 25-97.5 37t-92.5 14-104 2h-402v-590zm0 709h420q57 0 88.5 2t80.5 10 86 29.5 64 56.5q50 64 50 155 0 84-43 142-25 34-59 54.5t-80.5 28.5-76 9.5-83.5 1.5h-447v-489z"/><glyph unicode="C" horiz-adv-x="1366" d="M102 715q0 37 1 69t11 105 27 134.5 53.5 138 86.5 134.5q78 92 188 142 106 45 250 45 133 0 237-37 118-40 193-124t131-214l-139-70q-14 73-60 148-22 35-48 62t-67 55-102 43.5-137 15.5q-139 0-223-47-99-54-166-174-92-164-92-410 0-145 26-258 84-387 478-387 101 0 177 34.5t136 112.5q59 78 78 160l129-78q-85-185-228-276-119-76-309-76-311 0-473 207-54 68-89.5 155.5t-48.5 173.5-16.5 130.5-3.5 85.5z"/><glyph unicode="D" horiz-adv-x="1409" d="M166 0v1446h387q101 0 152-2 139-5 231-36.5t176-121.5q48-51 88-117.5t73.5-186 33.5-255.5q0-45-5-95t-21.5-133.5-59-171-105.5-157.5q-85-92-186-131-67-26-144-32.5t-243-6.5h-377zm139 123h217q153 0 241 9.5t144 35.5q52 24 90 63.5t56 69.5q114 163 114 422 0 36-3.5 75.5t-15.5 110.5-44 144-80 131q-59 75-147 108-55 20-116 24.5t-202 4.5h-254v-1198z"/><glyph unicode="E" horiz-adv-x="1236" d="M166 0v1446h944v-125h-807v-516h731v-127h-731v-551h858v-127h-995z"/><glyph unicode="F" horiz-adv-x="1150" d="M166 0v1446h946v-121h-813v-489h729v-119h-729v-717h-133z"/><glyph unicode="G" horiz-adv-x="1449" d="M102 713q0 24 1 45t4.5 67.5 12 88.5 22.5 97 38 105.5 55.5 101 78 96.5 102.5 81q140 88 336 88 75 0 141.5-14.5t114-35.5 90-55 69-63.5 52-71 37.5-66.5 28-61l-129-69q-46 169-154 249-99 72-232 72h-11q-111 0-203-43-58-27-109-73.5t-97.5-118.5-73.5-179-27-235 25-234 68-177 94-117.5 110-71.5q78-33 180-33 184 0 295 117 135 146 135 428h-532v125h651v-756h-119v242q-40-98-111-164-125-115-325-115-157 0-285 68-90 48-156 124.5t-103.5 169-55 189-17.5 199.5z"/><glyph unicode="H" horiz-adv-x="1492" d="M166 0v1446h135v-645h889v645h137v-1446h-137v678h-889v-678h-135z"/><glyph unicode="I" horiz-adv-x="468" d="M166 0v1446h137v-1446h-137z"/><glyph unicode="J" horiz-adv-x="1024" d="M27 397l145 33q-2-20-2-63 0-139 66-205 76-74 231-74 149 0 211 98 22 34 32.5 92t11.5 91 1 98v979h135v-848q0-162-4-242-4-92-23-158.5t-71-121.5q-46-51-119-80-74-29-186-29-86 0-152 17-190 51-248 223-9 27-15.5 60.5t-8 56.5-3 47-1.5 26z"/><glyph unicode="K" horiz-adv-x="1366" d="M166 0v1446h139v-807l787 807h188l-565-574 614-872h-168l-540 782-316-317v-465h-139z"/><glyph unicode="L" horiz-adv-x="1150" d="M166 0v1446h139v-1319h799v-127h-938z"/><glyph unicode="M" horiz-adv-x="1622" d="M166 0v1446h162l489-1227 469 1227h170v-1446h-135l10 1229-471-1229h-94l-481 1229 16-1229h-135z"/><glyph unicode="N" horiz-adv-x="1449" d="M166 0v1446h135l858-1237-10 1237h135v-1446h-135l-848 1249v-1249h-135z"/><glyph unicode="O" horiz-adv-x="1449" d="M102 727q0 366 193 576 90 96 199 139 102 41 235 41 318 0 483-242 56-83 96-211 40-125 40-291v-8q0-147-41-297t-123-258q-97-124-228-174-110-39-227-39-258 0-420 168-39 40-72 91t-65.5 123.5-51 171-18.5 210.5zm146-4q0-29 1.5-58.5t11-97 26.5-125 53-125.5 86-116q121-115 297-115 194 0 311 131 46 50 79.5 117t50 124.5 26 121 11 94.5 1.5 57v15q0 27-2 62-4 45-15.5 117.5t-44.5 150.5-83 138q-63 71-127 105-88 45-201 45-87 0-160-26.5t-124.5-74-90-109-61.5-134.5-34-147-11-150z"/><glyph unicode="P" horiz-adv-x="1280" d="M166 0v1446h496q188 0 253-6 82-7 140-30.5t106-78.5q94-108 94-280 0-155-81-263-42-54-107-88-70-34-159.5-41.5t-291.5-7.5h-319v-651h-131zm131 772h309q32 0 94.5 1t92.5 1q49 1 77.5 3.5t67.5 11 69.5 27.5 55.5 50q59 71 59 187 0 96-41 164-17 27-35.5 46.5t-44 31.5-43.5 19-52.5 10-50 3.5-56.5 1.5q-26 0-77 1t-75 1h-350v-559z"/><glyph unicode="Q" horiz-adv-x="1449" d="M102 709q0 199 55.5 343t129.5 230q53 60 110 98 146 103 344 103 230 0 379-135 64-58 111-135.5t69.5-143 35-142 14.5-113 2-75.5q0-285-123-499l194-181-86-92-182 168q-172-172-426-172-235 0-387 133-66 57-114 134.5t-71.5 144.5-37 143.5-15.5 115-2 75.5zm144 4q0-268 114-441 33-49 82-92 110-100 287-100 233 0 361 180 118 168 122 449 0 288-116 462-63 101-164 152-90 41-197 41-134 0-227-57-93-56-154.5-160.5t-84.5-211.5-23-222z"/><glyph unicode="R" horiz-adv-x="1323" d="M166 0v1446h407q203 0 244-2 259-18 359-193 55-102 55-219 0-130-66-225.5t-186-134.5q-70-24-176-31l469-641h-172l-457 641h-338v-641h-139zm139 760h340q76 0 115 2 51 2 81 5t72 13 74 32 57 56q52 70 52 170 0 93-43 162-46 76-119 99.5t-182 23.5h-447v-563z"/><glyph unicode="S" horiz-adv-x="1236" d="M100 365l138 71q5-103 32-162 36-79 127.5-134.5t241.5-55.5q92 0 164 20 105 32 170 107t65 180q0 79-39 139-35 56-100.5 89t-198.5 69q-17 4-61.5 15.5t-69 18-61 17-67 22.5-58.5 25q-209 104-209 322 0 126 70 215 36 46 88.5 79t97 48 99 23 76 9 46.5 1q274 0 414-168 49-60 84-150l-127-67q-24 78-59 125-40 57-119 102t-197 45q-21 0-44.5-2t-67-9.5-86.5-28.5-74-52q-68-68-68-166 0-77 43-135 22-30 51.5-52t72-38.5 65.5-23.5 75-21q12-3 82-21.5t99-27.5 83.5-28 93-40 70.5-47q136-112 136-283 0-199-179-329-149-103-360-103-216 0-356 98.5t-183 303.5z"/><glyph unicode="T" horiz-adv-x="1110" d="M31 1325v121h1048v-121h-456v-1325h-138v1325h-454z"/><glyph unicode="U" horiz-adv-x="1409" d="M164 706v740h135v-938q0-152 43-238 39-81 125-125 102-55 240-55 217 0 319 121 29 35 47 76t25 92 8.5 84 1.5 92v891h137v-658q0-199-4-299-3-115-27-203t-86-161q-141-162-419-162-227 0-371 113-64 51-105 119-48 84-58.5 185t-10.5 326z"/><glyph unicode="V" horiz-adv-x="1236" d="M20 1446h152l444-1258 455 1258h146l-543-1446h-123z"/><glyph unicode="W" horiz-adv-x="1792" d="M20 1446h148l340-1200 344 1200h94l357-1200 329 1200h137l-411-1446h-111l-346 1169-344-1169h-108z"/><glyph unicode="X" horiz-adv-x="1366" d="M43 0l549 778-473 668h174l393-584 401 584h166l-475-668 545-778h-170l-467 692-485-692h-158z"/><glyph unicode="Y" horiz-adv-x="1280" d="M20 1446h162l447-719 465 719h166l-566-848v-598h-135v598z"/><glyph unicode="Z" horiz-adv-x="1193" d="M59 0v90l891 1233h-837v123h1022v-94l-881-1229h868v-123h-1063z"/><glyph unicode="[" horiz-adv-x="555" d="M152-295v1890h348v-104h-224v-1684h224v-102h-348z"/><glyph unicode="\" horiz-adv-x="980" d="M20 1446h156l785-1446h-152z"/><glyph unicode="]" horiz-adv-x="555" d="M53-190h223v1685h-223v102h348v-1890h-348v103z"/><glyph unicode="^" horiz-adv-x="1482" d="M262 592l408 854h139l412-854h-131l-349 737-348-737h-131z"/><glyph unicode="_" horiz-adv-x="1024" d="M-20-301h1064v-121h-1064v121z"/><glyph unicode="`" horiz-adv-x="555" d="M47 1430h229l232-287h-109z"/><glyph unicode="a" horiz-adv-x="1024" d="M92 246q0 89 53 153 12 15 25.5 27.5t31 24 30 20 35.5 18 33 14.5 38 13.5 34.5 11 38.5 11.5 35 10q162 42 185 47l114 25v51q0 63-10 94-41 129-218 129h-5q-164 0-221-84-33-50-37-152l-133 23q23 115 57 170 41 62 121 105.5t205 43.5q86 0 169-24.5t130-79.5q12-14 21.5-31.5t15.5-30.5 10.5-36 7-33 3.5-38 1-34v-401q0-55 1-80.5t8.5-53 23.5-40.5q29-23 113-23v-96q-91 0-140.5 10.5t-79.5 40.5q-18 18-28 41t-12 39.5-3 46.5q-19-49-51-84-37-43-114-78.5t-181-35.5q-150 0-233 83-74 74-74 183zm117 2q0-34 18-70 16-31 42.5-52t56.5-28.5 47-9.5 33-2q60 0 122.5 22t114.5 65 76 97q26 59 26 172v74l-61-16q-27-7-78.5-20.5t-77.5-21-67-18.5-64.5-19-51-17.5-45.5-18.5-30-18q-61-45-61-119z"/><glyph unicode="b" d="M154 0v1446h116v-635q1 3 23 41 15 23 36 44t54.5 46 81.5 40 104 15q149 0 252-98 80-77 118-190t38-236q0-216-98-350-38-52-82-80-90-66-222-66-105 0-190 56-41 23-76 73-24 30-39 68v-174h-116zm116 492q0-100 23-185 7-24 15-46t29.5-56.5 48.5-58.5 73-42 102-18q144 0 219 109 65 99 68 274 0 96-21 178-18 71-51 121.5t-73.5 75.5-77 35-74.5 10q-81 0-145-41-136-89-136-356z"/><glyph unicode="c" horiz-adv-x="980" d="M90 481q0 111 31 203 47 150 163 233.5t275 83.5q181 0 285-108 60-63 86-137l-113-27q-31 79-102.5 121.5t-161.5 42.5q-118 0-203-72-129-111-129-334 0-31 3.5-69.5t26-112.5 62.5-123q38-43 97-71 60-29 133-29 176 0 264 164l123-29q-44-90-107-145-106-97-284-97-181 0-299 111-50 48-83.5 109t-46.5 122-16.5 96-3.5 68z"/><glyph unicode="d" d="M90 489q0 28 2 58t14 88 32.5 108 63 104.5 99.5 90.5q90 59 211 59 134 0 217-77 45-43 66-99v625h118v-1446h-118v176q-33-94-116-146.5t-185-52.5q-111 0-203 62-56 36-96.5 92.5t-60 106.5-30.5 109.5-12.5 87.5-1.5 54zm131 0q0-18 .5-33t6-59 15-79 31-79.5 51.5-74.5 78.5-51 108.5-21q116 0 190 74 91 95 95 315v10q-1 139-27 219-28 83-90 128-74 49-162 49-74 0-127-29-72-39-121-130.5t-49-238.5z"/><glyph unicode="e" d="M90 498q0 112 31 198 48 139 160.5 222t259.5 83q189 0 313-139 58-65 92.5-159.5t34.5-184.5v-31h-758v-15q0-80 19-148 7-28 18.5-55.5t36.5-62.5 57-60 84-43q50-17 110-17h7q211 0 313 205l113-33q-43-86-76-127-131-156-348-156-127 0-225 52-66 34-114.5 90.5t-72 108.5-37 114.5-16 95-2.5 62.5zm135 90h617q-8 72-32.5 128t-56 88.5-71 53.5-74 28-69.5 7q-60 0-110-18t-83-48-52-54.5-32-49.5q-27-61-37-135z"/><glyph unicode="f" horiz-adv-x="641" d="M47 874v103h215v186q0 19-.5 53t0 44.5 1.5 30 3.5 32.5 7.5 29q40 123 205 123 41 0 125-15v-119q-68 27-117 27-48 0-71-27-8-8-14-16t-9.5-19-5.5-18-3-23.5-1-24v-263.5h221v-103h-221v-874h-121v874h-215z"/><glyph unicode="g" horiz-adv-x="1110" d="M90 494q0 141 49.5 261.5t157.5 184.5q92 57 219 57 143 0 236-77 48-38 69-80 13-25 17-43v180h116v-873q0-183-4-235-10-172-96-258-46-47-130-79t-204-32q-21 0-39.5 1t-58 5.5-74.5 17-75 32-74.5 53.5-57.5 78q-35 67-43 161l127 23q6-42 13-70.5t28-69 51.5-65 87-43 132.5-18.5q200 0 264 133 6 13 11 27.5t8 26 5.5 31.5 4 30.5 2.5 39 1.5 39.5 1.5 48.5 1 52.5q0 17 1 53t1 53v49q-13-39-21-55-33-60-109.5-106.5t-193.5-46.5q-109 0-199 49-52 29-93 72t-64 92-38 93-21 91.5-7.5 70.5-1.5 46zm123 2q0-97 22-172t52-117q48-71 121-98 54-21 116-21 113 0 187 53 119 87 123 338 0 209-68 307-30 42-88.5 74.5t-147.5 32.5q-62 0-112-19-42-16-76-44.5t-55-57.5-36.5-67.5-22.5-66.5-10.5-63-4-48-.5-31z"/><glyph unicode="h" d="M154 0v1446h122v-625q7 20 33 53 35 48 102.5 85.5t168.5 37.5q24 0 50-3.5t67-14 81.5-37 69.5-65.5q39-53 51-120.5t12-205.5v-551h-118v532q0 15-1 46.5t-1 48.5q-1 42-5 72t-15 63.5-34.5 59-58.5 42.5q-53 23-115 23-171 0-246-137-27-54-34-119.5t-7-208.5v-422h-122z"/><glyph unicode="i" horiz-adv-x="425" d="M154 0v977h118v-977h-118zm0 1206v187h118v-187h-118z"/><glyph unicode="j" horiz-adv-x="425" d="M-98-483l2 114 18-12q68-37 141-37 52 0 72 29 12 17 12 39 3 14 3.5 44.5t.5 84.5 1 88q0 45 1 135t1 135v840h118v-858q0-227-2-342 0-92-5.5-139t-24.5-80q-44-82-162-82-96 0-176 41zm252 1689v187h118v-187h-118z"/><glyph unicode="k" horiz-adv-x="1024" d="M154 0v1446h118v-983l549 514h152l-408-389 436-588h-147l-373 506-209-199v-307h-118z"/><glyph unicode="l" horiz-adv-x="425" d="M152 0v1446h122v-1446h-122z"/><glyph unicode="m" horiz-adv-x="1579" d="M154 0v977h120v-203q6 38 27 78 38 72 108 108.5t156 36.5q55 0 100.5-14.5t74-38.5 46-47 27.5-47q17-41 21-96 16 62 38 98 14 25 33.5 47.5t51 46 78.5 37.5 104 14q108 0 176-49 20-14 36-30t27.5-39.5 19.5-41 13.5-51.5 8-55 4-67 1.5-70.5v-593.5h-120v623l-.5 39-1.5 37.5-3.5 31.5-6 31-8.5 25.5-12 25-16 20-20 19.5q-47 35-121 35-155 0-229-158-26-55-32.5-118t-6.5-203v-408h-119v543q0 111-5.5 167t-25.5 93q-47 84-157 84-146 0-217-131-33-62-41.5-134.5t-8.5-228.5v-393h-120z"/><glyph unicode="n" d="M154 0v977h120v-174q19 59 70 108 91 86 238 86 65 0 118-16t88-43 56.5-53.5 34.5-55.5q24-50 29-105.5t5-180.5v-543h-120v508q0 81-1 118t-6 79-16 69q-22 55-74 84-52 31-133 31-72 0-129-27-53-26-93-77.5t-54-108.5q-13-61-13-248v-428h-120z"/><glyph unicode="o" d="M90 477q0 134 45 248 27 71 70 123.5t85 81 92 45.5 85 21.5 70 4.5q169 0 286-108 150-144 154-399 0-111-27-197-46-150-157.5-236t-264.5-86q-214 0-338 164-100 137-100 338zm129 0q0-237 129-338 71-57 182-57 46 0 88 11.5t84.5 40.5 74 73 51 114.5 20.5 159.5v8q0 109-25 191-26 84-72 130t-100 67.5-116 21.5q-102 0-177-55-139-104-139-367z"/><glyph unicode="p" d="M154-518v1495h118v-160q18 41 37 64 34 46 98 81t160 35q121 0 203-51 105-66 156-194.5t51-266.5q0-77-21-168-8-31-20-64t-43-86-71-92-107-68.5-148-29.5q-102 0-168 41.5t-100 94.5q-14 20-27 51v-682h-118zm118 1020q-1-23-1-44 0-47 3-84 5-55 30.5-118.5t74.5-103.5q70-58 170-58 65 0 117.5 24.5t86.5 64.5 57 94 32.5 110 9.5 115q0 90-27 172-17 53-44.5 93t-56.5 62.5-63.5 36-60.5 17.5-53 4q-70 0-127-31-52-29-86-84t-47-119q-11-58-15-151z"/><glyph unicode="q" horiz-adv-x="1024" d="M90 496q0 264 141 397 110 104 269 104 76 0 146-28t114-82q22-30 35-66v156h116v-1495h-116v686q-15-36-37-68-29-39-69-66t-79.5-38-65.5-15-48-4q-108 0-201 60-36 23-69.5 60.5t-65.5 93-51 135-19 170.5zm125 4q0-79 16-146 28-115 102.5-189.5t186.5-74.5q90 0 154 51 73 55 97 141.5t26 204.5q0 73-6 126t-33 116.5-76 101.5q-76 56-166 56-142 0-229-117-72-103-72-270z"/><glyph unicode="r" horiz-adv-x="641" d="M154 0v977h120v-156q9 24 27 49 44 65 115 97 54 24 139 24 37 0 72-4l-2-108q-37 6-76 6-111 0-178.5-61.5t-85.5-170.5q-11-70-11-231v-422h-120z"/><glyph unicode="s" horiz-adv-x="937" d="M70 238l118 41q7-29 24.5-59.5t48.5-62 83.5-51.5 116.5-20q118 0 180 49 32 24 51 63t19 78q0 44-27 86-23 32-65 53t-119 38q-17 4-61.5 13t-73.5 16.5-67 19.5-67 30.5-49 42.5q-51 63-51 145v9q0 22 5 49t25 69.5 54 72.5q46 42 119 61.5t147 19.5q150 0 240-63 81-57 106-158l-114-30q-16 77-83.5 111t-154.5 34q-105 0-160-37-24-12-43-43-22-39-22-84 0-33 14-59t33-41.5 50.5-28 53-18 54.5-11.5l102-20q157-32 223-127 47-64 47-150 0-74-30-131-36-69-118.5-119.5t-215.5-50.5q-212 0-328 148-32 41-65 115z"/><glyph unicode="t" horiz-adv-x="598" d="M31 874v103h205v416h116v-416h215v-103h-215v-643q-1-28 .5-47.5t8-44.5 24.5-38 47-13q50 0 135 62v-123q-67-45-155-45-23 0-33 2-100 7-129 86-14 38-14 194v610h-205z"/><glyph unicode="u" d="M154 498v479h122v-506q0-171 17-238 39-143 203-143 151 0 231 109 14 18 24.5 40t17.5 39 11.5 45.5 7 42 4 48 1.5 43.5v520h120v-977h-120v176q-19-44-39-72-91-127-273-127-56 0-114 19-66 22-115.5 72t-71.5 116q-26 88-26 314z"/><glyph unicode="v" horiz-adv-x="854" d="M20 977h121l271-795 301 795h118l-374-977h-99z"/><glyph unicode="w" horiz-adv-x="1409" d="M43 977h117l262-789 240 789h102l242-789 243 789h117l-309-977h-101l-241 805-240-805h-102z"/><glyph unicode="x" horiz-adv-x="937" d="M43 0l358 508-329 469h141l256-373 264 373h129l-327-469 358-508h-137l-287 416-297-416h-129z"/><glyph unicode="y" horiz-adv-x="894" d="M23-334q66-47 127-47 26 0 43 7t33.5 30.5 25 42.5 29.5 68q6 15 19 45.5t19 46.5l52 141-338 977h117l284-832 318 832h122l-440-1118q-71-181-90-218-49-96-112-123-34-14-80-14-73 0-129 39v123z"/><glyph unicode="z" horiz-adv-x="811" d="M57 0v76l529 796h-484v105h654v-72l-529-796h543v-109h-713z"/><glyph unicode="{" horiz-adv-x="548" d="M39 598v104q74 7 115 31 35 20 47 58.5t12 128.5l-2 342v10q0 117 14 172 38 160 238 160h59v-101h-35q-47 0-72-7t-42-26q-18-18-25-45-10-39-10-143v-356q0-127-33.5-183t-132.5-94q36-11 54.5-20t41.5-29q40-37 55-85t15-140v-357q0-104 10-143 11-42 43-60t96-18h35v-100l-59 2q-73 3-117.5 19t-75.5 53q-34 42-45 88-14 63-14 170v12l2 340q0 113-20 149-17 31-52.5 46.5t-101.5 21.5z"/><glyph unicode="|" horiz-adv-x="468" d="M170-293v1886h125v-1886h-125z"/><glyph unicode="}" horiz-adv-x="548" d="M25-203h36q83 0 113 33 18 18 25 45 10 39 10 143v357q0 126 33.5 182t132.5 94q-37 11-55 20t-39 29q-41 37-56.5 85.5t-15.5 140.5v354q0 106-10 145-11 41-43 59.5t-95 18.5h-36v101l59-2q73-3 117-19t75-53q33-36 46-88 14-52 14-170v-12l-2-340q0-114 20-150 18-31 53.5-47.5t100.5-20.5v-104q-74-7-115-31-34-20-46.5-59t-12.5-127l2-342v-10q0-117-14-172-42-160-238-160h-59v100z"/><glyph unicode="~" horiz-adv-x="1482" d="M154 545q36 51 57 75.5t51 51.5q93 80 213 80 33 0 86-11 58-14 197-75l84-37q72-31 102.5-41t59.5-10q72 0 135 47 47 34 110 110l82-84q-47-58-76.5-86.5t-70.5-56.5q-91-59-191-59-66 0-133 28-61 23-110 47l-74 37q-124 62-213 62-35 0-68-13-14-5-25-11.5t-25-20-22.5-22.5-30.5-33.5-36-39.5l-20-22z"/><glyph unicode="¡" horiz-adv-x="425" d="M96 1221v237h154v-237h-154zm10-1221v829l19 269h96l19-269v-829h-134z"/><glyph unicode="¢" horiz-adv-x="980" d="M90 492q1 100 26.5 183t65.5 138 93.5 95.5 107 61 109.5 27.5v191h102v-189q15 0 33.5-1.5t56.5-11.5 72.5-27.5 75-53.5 69.5-84q11-20 29-65l-113-29q-48 134-223 164v-805q45 8 80.5 24.5t60.5 41.5 40 44.5 32 49.5l123-27q-20-44-43-78-103-147-293-164v-208h-102v208q-106 11-186.5 60t-126.5 122.5-68 157.5-21 175zm131 2q0-13 .5-30.5t6.5-64.5 18.5-88 40-88 65.5-78q16-13 34-23.5t36-16.5 29.5-9.5 26.5-6.5l14-3v801q-61-13-109.5-44t-78-70-48.5-88.5-26.5-95.5-8.5-95z"/><glyph unicode="£" horiz-adv-x="1236" d="M86 154q0 27 11 53t33 49.5 62.5 38 94.5 14.5q37 0 102.5-12.5t122.5-44.5q39 86 39 149 0 95-82 177h-270v106h190q-35 30-41 37-60 54-123 137-33 46-49 82-31 62-31 137 0 100 56 180 49 74 149.5 131.5t251.5 57.5q24 0 54.5-3t80.5-12.5 103.5-34 95.5-59.5q53-44 86-106 33-63 47-172l-135-27q-3 76-25 125-14 29-37.5 56t-60 53-92 41.5-121.5 15.5q-64 0-119-16-84-25-138-84t-54-144q0-40 12-75 21-60 78-125 35-37 72-72 87-87 118-123h312v-106h-248q55-89 55-185 0-102-53-180 71-40 153-72 52-26 107-26 50 0 78 28 31 31 40 83.5t11 158.5l135-14q0-1-1-24.5t-3.5-53.5-8.5-66-19.5-73-32.5-64q-26-38-77.5-67t-131.5-29q-30 0-60 5t-51.5 10.5-54 19-47.5 21-52.5 26.5-50.5 26q-56-58-119-85t-145-27q-112 0-164.5 49t-52.5 115zm107-4q0-16 8-27 23-33 90-33 109 0 178 62-84 51-182 51-40 0-56-6-38-15-38-47z"/><glyph unicode="¤" horiz-adv-x="1366" d="M117 223l153 150q-62 85-87 158t-25 167q0 92 25.5 164t86.5 154l-149 149 92 92 149-147q80 59 155 85t165 26q93 0 177.5-29t144.5-82l151 150 94-95-151-151q110-142 110-320 0-91-26-165t-86-156l151-154-94-92-152 154q-78-60-151.5-85.5t-169.5-25.5q-94 0-163 24t-155 87l-153-150zm168 473q0-173 116-289t289-116q166 0 277.5 115.5t111.5 287.5q0 175-112.5 290.5t-282.5 115.5q-169 0-284-117t-115-287z"/><glyph unicode="¥" horiz-adv-x="1280" d="M20 1446h162l447-713 465 713h166l-420-629h321v-115h-397l-70-108h467v-115h-467v-479h-135v479h-440v115h440l-65 108h-375v115h301z"/><glyph unicode="¦" horiz-adv-x="468" d="M172-293v811h125v-811h-125zm0 1077v809h125v-809h-125z"/><glyph unicode="§" d="M80 33l96 94q72-74 173.5-120t201.5-46q95 0 165 49t70 140q0 26-8 49t-25.5 42.5-33 33-45 29-44.5 23-48.5 21-42.5 17.5q-123 54-195 94-55 29-92.5 55.5t-74.5 63.5-56 84.5-19 105.5q0 108 66 195.5t170 121.5q-70 47-106.5 101t-36.5 131q0 48 24 108 38 89 117 134t180 45q109 0 199.5-45.5t189.5-131.5l-94-92q-84 71-151.5 107.5t-151.5 36.5q-78 0-128-42.5t-50-119.5q0-48 35.5-87t92-67 124.5-55.5 136.5-60.5 125-73.5 92-103 35.5-141.5q0-212-213-321 83-47 124.5-106t41.5-148q0-102-56.5-177t-141.5-110-185-35q-129 0-249 53t-212 148zm156 739q0-60 45-108 38-42 170-108.5t208-90.5q68 37 124.5 110t56.5 142q0 73-56 135-66 71-342 170-85-37-145.5-102t-60.5-148z"/><glyph unicode="¨" horiz-adv-x="555" d="M39 1192v188h125v-188h-125zm352 0v188h125v-188h-125z"/><glyph unicode="©" horiz-adv-x="1705" d="M125 723q0 152 56.5 287.5t154 232 233 153 287.5 56.5q148 0 282.5-57t232-153 155-229.5 57.5-279.5q0-205-96-374.5t-263.5-267-369.5-97.5q-151 0-286.5 56.5t-232.5 153.5-153.5 232.5-56.5 286.5zm65-2q0-181 88.5-333t241-240.5 334.5-88.5q181 0 333 88.5t240.5 240.5 88.5 333q0 138-51 261.5t-138.5 212-210 140-260.5 51.5q-183 0-336-88t-241.5-241-88.5-336zm265-14q0 220 117.5 356.5t306.5 136.5q138 0 227.5-71.5t126.5-210.5l-111-25q-32 108-92 156.5t-162 48.5q-138 0-216.5-100.5t-78.5-280.5q0-175 77.5-272t217.5-97q103 0 171.5 59t93.5 171l108-13q-35-155-133.5-238t-247.5-83q-184 0-294.5 126.5t-110.5 336.5z"/><glyph unicode="ª" horiz-adv-x="641" d="M53 993q0 60 35 99 65 80 301 125l64 12v22q0 24-4.5 43.5t-17.5 40-41.5 32-70.5 11.5q-51 0-83.5-12.5t-45-38-15.5-44.5-3-52l-102 18q8 64 26 94 57 119 221 119 183-5 220-125 6-22 6-94v-213q0-33 .5-45.5t3.5-31.5 9.5-25 19-11.5 32.5-5.5h25v-80h-21q-28 0-49.5 2.5t-46.5 10-40 25.5-19 46l-4-6q-11-19-31-35-70-55-170-55-105 0-153 54.5t-46 119.5zm94 2q0-36 26.5-63t82.5-27q9 0 26.5 3t48 12.5 60 33 45.5 58.5q17 35 17 100v31l-25-6q-215-54-246-78-12-10-17-15.5t-11.5-19-6.5-29.5z"/><glyph unicode="«" horiz-adv-x="768" d="M78 633l241 379 99-62-205-317 205-289-99-63zm276 0l244 379 96-62-202-317 202-289-96-63z"/><glyph unicode="¬" horiz-adv-x="1482" d="M145 539v123h1160v-662h-125v539h-1035z"/><glyph unicode="­" horiz-adv-x="698" d="M78 541v123h543v-123h-543z"/><glyph unicode="®" horiz-adv-x="1705" d="M125 723q0 152 56.5 287.5t154 232 233 153 287.5 56.5q148 0 282.5-57t232-153 155-229.5 57.5-279.5q0-205-96-374.5t-263.5-267-369.5-97.5q-151 0-286.5 56.5t-232.5 153.5-153.5 232.5-56.5 286.5zm65-2q0-181 88.5-333t241-240.5 334.5-88.5q181 0 333 88.5t240.5 240.5 88.5 333q0 138-51 261.5t-138.5 212-210 140-260.5 51.5q-183 0-336-88t-241.5-241-88.5-336zm394-459v922h252q99 0 154.5-17t92.5-59q60-66 60-182 0-101-46.5-164t-135.5-82l194-418h-121l-188 406h-152v-406h-110zm110 502h160q97 0 137.5 37t40.5 125q0 89-41.5 123t-150.5 34h-146v-319z"/><glyph unicode="¯" horiz-adv-x="555" d="M39 1192v127h477v-127h-477z"/><glyph unicode="°" horiz-adv-x="724" d="M61 1231q0 125 88.5 213t212.5 88q123 0 212.5-89t89.5-212q0-124-88.5-212.5t-213.5-88.5q-124 0-212.5 88t-88.5 213zm123 0q0-73 52-125.5t126-52.5q73 0 125 52t52 126-52 126-125 52q-74 0-126-52.5t-52-125.5z"/><glyph unicode="±" horiz-adv-x="1482" d="M193 0v123h1097v-123h-1097zm0 713v123h487v467h123v-467h487v-123h-487v-469h-123v469h-487z"/><glyph unicode="²" horiz-adv-x="768" d="M82 1200q1 66 27.5 117.5t70 82 95.5 46.5 108 16q137-2 223-78t86-213q0-65-28.5-131t-69-118-105-109-116.5-95-123-85h414v-90h-580v86q150 93 270 190.5t168 163.5q66 92 66 193 0 93-57 146.5t-148 53.5q-56 0-99-19.5t-65-50-32.5-60-10.5-56.5q0-12 1.5-24t3.5-22 6.5-21 7.5-19 9.5-18 10-15.5 10.5-14.5 10-12 9.5-11 7.5-9l-135 16q-1 2-8 21t-10.5 29-8.5 29.5-7 39-1 41.5z"/><glyph unicode="³" horiz-adv-x="768" d="M61 813l107 35v-23q0-56 18-97t42.5-62 58-32.5 56.5-14 46-1.5q55 1 94 17.5t59 44 28.5 54.5 9.5 57q0 61-23 98-28 47-70.5 62.5t-126.5 15.5h-135v90h117q35 0 59 1.5t58 10 55 24 36.5 45.5 14.5 72q0 80-53 123t-131 43q-44 0-79.5-14t-56.5-34-35-45.5-19-47-5-39.5q0-3 1-9t1-9l-112 28q10 39 20.5 68t35 67.5 55.5 63 83.5 41.5 118.5 16q117-2 197.5-64.5t81.5-183.5q4-155-140-198l15-4q55-16 97.5-68.5t45.5-138.5q1-32-6.5-66.5t-28.5-73-53-68-86-50-123-21.5h-21l-35.5 3-49.5 9-52.5 19-56 31.5-48 49.5-40.5 69q-10 24-15 42t-7 41z"/><glyph unicode="´" horiz-adv-x="555" d="M49 1143l230 287h227l-348-287h-109z"/><glyph unicode="µ" horiz-adv-x="1097" d="M166-442v1407h125v-504q0-111 10.5-172t36.5-101q29-44 81-71t109-27q72 0 132.5 39.5t95.5 108.5q25 47 33 99.5t8 162.5l2 465h123v-732q0-90 13-119.5t54-29.5q23 0 55 14v-102q-42-12-75-12-83 0-121 39t-43 127q-51-93-116-134t-161-41q-80 0-136 28.5t-103 92.5l8-538h-131z"/><glyph unicode="¶" horiz-adv-x="1316" d="M162 1051q0 172 108 280 62 62 139.5 88.5t198.5 26.5h453v-90h-68v-1698h-94v1698h-321v-1698h-95v1020q-54 6-96 20-104 37-164.5 132.5t-60.5 220.5z"/><glyph unicode="·" horiz-adv-x="382" d="M109 483v222h165v-222h-165z"/><glyph unicode="¸" horiz-adv-x="555" d="M135-143l84 143h49l-49-96q24 6 60 6 62-2 101.5-36t39.5-95q0-81-63-124.5t-146-43.5q-1 0-76 6v55q46-4 66-4 57 0 85.5 24t28.5 58q0 29-25.5 52.5t-76.5 23.5q-35 0-78-21v52z"/><glyph unicode="¹" horiz-adv-x="768" d="M209 1223v90q86 0 123 29t37 88v16h98v-903h-98v706l-9-4q-45-22-129-22h-22z"/><glyph unicode="º" horiz-adv-x="681" d="M59 1128q-1 63 15.5 120.5t49.5 106.5 90.5 78.5 131.5 28.5q71-1 126-29.5t87-76 48-101.5 16-112q0-75-23-137-35-97-107.5-144t-160.5-45q-70 1-123.5 28.5t-85 72.5-47.5 98-17 112zm101 5q0-118 49.5-173t126.5-57q78-2 132 55.5t54 176.5q0 59-10 100-10 45-31.5 75.5t-48 44-47.5 18.5-41 5q-83 0-133.5-61t-50.5-184z"/><glyph unicode="»" horiz-adv-x="768" d="M74 342l202 317-202 289 96 64 244-353-244-378zm276 0l203 317-203 289 99 64 241-353-241-378z"/><glyph unicode="¼" horiz-adv-x="1792" d="M209 1223v90q86 0 123 29t37 88v16h98v-903h-98v706l-9-4q-45-22-129-22h-22zm293-1266l719 1577 86-39-723-1575zm602 264v78l391 606h100v-594h136v-90h-136v-221h-98v221h-393zm117 90h276v422z"/><glyph unicode="½" horiz-adv-x="1792" d="M209 1223v90q86 0 123 29t37 88v16h98v-903h-98v706l-9-4q-45-22-129-22h-22zm244-1266l721 1577 83-39-722-1575zm653 700q1 66 27.5 118t70 83 95.5 46.5 108 15.5q138-2 223.5-78.5t85.5-212.5q0-129-102.5-255t-339.5-284h414v-90h-580v86q148 92 270 192t168 162q66 93 66 193 0 92-56 146.5t-149 54.5q-58 0-101-20.5t-64.5-52-31.5-60.5-10-54q0-17 3-33.5t9-31.5 11-26.5 15-25 14-19.5 14-18l10-12-135 17q-1 3-8 21t-10.5 28.5-8.5 29.5-7 38.5-1 41.5z"/><glyph unicode="¾" horiz-adv-x="1792" d="M61 813l107 35v-23q0-56 18-97t42.5-62 58-32.5 56.5-14 46-1.5q55 1 94 17.5t59 44 28.5 54.5 9.5 57q0 61-23 98-28 47-70.5 62.5t-126.5 15.5h-135v90h117q35 0 59 1.5t58 10 55 24 36.5 45.5 14.5 72q0 80-53 123t-131 43q-44 0-79.5-14t-56.5-34-35-45.5-19-47-5-39.5q0-3 1-9t1-9l-112 28q10 39 20.5 68t35 67.5 55.5 63 83.5 41.5 118.5 16q117-2 197.5-64.5t81.5-183.5q4-155-140-198l15-4q55-16 97.5-68.5t45.5-138.5q1-32-6.5-66.5t-28.5-73-53-68-86-50-123-21.5h-21l-35.5 3-49.5 9-52.5 19-56 31.5-48 49.5-40.5 69q-10 24-15 42t-7 41zm512-856l721 1577 84-39-723-1575zm531 264v78l391 606h100v-594h136v-90h-136v-221h-98v221h-393zm117 90h276v422z"/><glyph unicode="¿" horiz-adv-x="980" d="M35 371q0 133 63 231 22 34 60.5 76.5t63 65.5 71.5 65q90 87 104 113 21 43 21 139v39h127v-72q0-57-6.5-96.5t-30.5-75.5q-9-17-51-63-23-24-70.5-67.5t-67.5-63.5q-71-67-111-136.5t-40-154.5q0-45 12-86 11-31 27.5-59t46.5-60 81-51 116-19q55 0 108 19 80 29 120 99.5t40 160.5q0 105-51 196l153-45q0-1 6-25t9-39.5 6.5-44.5 3.5-55q0-100-37-180-25-55-67-96t-82.5-61.5-87.5-32.5-74-14.5-52-2.5q-198 0-317 138-94 104-94 258zm364 837v238h160v-238h-160z"/><glyph unicode="À" horiz-adv-x="1323" d="M20 0l590 1446h115l575-1446h-149l-166 436h-647l-166-436h-152zm308 1833h217l200-256h-116zm55-1286h561l-278 739z"/><glyph unicode="Á" horiz-adv-x="1323" d="M20 0l590 1446h115l575-1446h-149l-166 436h-647l-166-436h-152zm363 547h561l-278 739zm186 1030l203 256h217l-301-256h-119z"/><glyph unicode="Â" horiz-adv-x="1323" d="M20 0l590 1446h115l575-1446h-149l-166 436h-647l-166-436h-152zm363 547h561l-278 739zm27 1034l215 252h86l213-252h-101l-159 115-158-115h-96z"/><glyph unicode="Ã" horiz-adv-x="1323" d="M20 0l590 1446h115l575-1446h-149l-166 436h-647l-166-436h-152zm304 1612q32 95 77 149 30 33 64 47 37 15 63 15 35 0 74-15.5t103-54.5q3-2 18-10.5t23-12.5 21.5-10 24.5-9 21-3q22 1 40 10.5t31.5 27.5 21.5 33 18 36l88-39q-18-45-43-86-64-105-156-105-10 0-21 1.5t-24 5-22.5 6.5-24.5 9.5-22 9.5-23.5 11.5-20.5 10-21 11.5l-18 9q-73 39-102 39-23 0-47-17-17-13-29.5-30t-17.5-28.5-14-37.5zm59-1065h561l-278 739z"/><glyph unicode="Ä" horiz-adv-x="1323" d="M20 0l590 1446h115l575-1446h-149l-166 436h-647l-166-436h-152zm357 1606v198h137v-198h-137zm6-1059h561l-278 739zm442 1059v198h138v-198h-138z"/><glyph unicode="Å" horiz-adv-x="1323" d="M20 0l590 1446h115l575-1446h-149l-166 436h-647l-166-436h-152zm363 547h561l-278 739zm125 1149q0 67 48.5 114.5t115.5 47.5q68 0 116-48t48-116q-1-68-49-115t-115-47q-69 0-116.5 48t-47.5 116zm74 0q2-37 26.5-61.5t61.5-24.5q35 0 60.5 26.5t25.5 61.5q-2 36-27 61t-61 25q-37-1-61.5-27t-24.5-61z"/><glyph unicode="Æ" horiz-adv-x="2048" d="M0 0l926 1446h1022v-125h-842v-520h758v-127h-758v-551h881v-123h-1016v418h-545l-264-418h-162zm508 547h463v747z"/><glyph unicode="Ç" horiz-adv-x="1366" d="M102 748q1 27 2 48.5t7.5 78.5 17.5 103.5 34 112.5 53.5 117.5 79.5 105.5 109 90 144.5 58 183.5 21q98-1 177.5-21.5t137.5-58 99-81 76-101.5q14-21 30.5-58.5t26.5-54.5l-139-70v9q-25 102-82 172-105 140-328 143-142 0-231-51-117-68-184-210t-70-345q-9-665 497-670 118-1 193.5 39t128.5 113q65 86 76 155l129-78q-130-289-406-340-76-12-121-12l-30-59q48 6 57 6h4q59 0 99-34.5t40-96.5q0-57-33.5-97t-79.5-56-95-15q-38 0-74 6v55h14q18-4 55-4 52 1 80.5 24t28.5 58q0 32-26 54t-74 22q-43 0-78-21v52l61 108q-3 0-22.5 2t-34 3.5-40.5 6-48.5 10-51.5 15.5-55 23q-86 42-151 112.5t-100.5 145.5-56.5 164-26.5 159.5-3.5 141.5z"/><glyph unicode="È" horiz-adv-x="1236" d="M166 0v1446h944v-125h-807v-516h731v-127h-731v-551h858v-127h-995zm119 1833h217l203-256h-119z"/><glyph unicode="É" horiz-adv-x="1236" d="M166 0v1446h944v-125h-807v-516h731v-127h-731v-551h858v-127h-995zm362 1577l203 256h215l-301-256h-117z"/><glyph unicode="Ê" horiz-adv-x="1236" d="M166 0v1446h944v-125h-807v-516h731v-127h-731v-551h858v-127h-995zm201 1581l215 252h86l213-252h-101l-159 115-158-115h-96z"/><glyph unicode="Ë" horiz-adv-x="1236" d="M166 0v1446h944v-125h-807v-516h731v-127h-731v-551h858v-127h-995zm162 1606v198h137v-198h-137zm448 0v198h137v-198h-137z"/><glyph unicode="Ì" horiz-adv-x="468" d="M-100 1833h217l202-256h-116zm266-1833v1446h137v-1446h-137z"/><glyph unicode="Í" horiz-adv-x="468" d="M143 1577l203 256h217l-303-256h-117zm23-1577v1446h137v-1446h-137z"/><glyph unicode="Î" horiz-adv-x="468" d="M-16 1581l213 252h86l215-252h-101l-159 115-158-115h-96zm182-1581v1446h137v-1446h-137z"/><glyph unicode="Ï" horiz-adv-x="468" d="M-57 1606v198h137v-198h-137zm223-1606v1446h137v-1446h-137zm225 1606v198h137v-198h-137z"/><glyph unicode="Ð" horiz-adv-x="1409" d="M0 721v110h166v615h387q154 0 243.5-9t151.5-34q155-65 257-245t102-429q0-261-108-445.5t-271-244.5q-50-19-130.5-28t-124-10-130.5-1h-377v721h-166zm305-598h277q238 0 327 45 109 55 183 201t75 340q1 54-5 112.5t-24.5 131.5-48 134.5-82 116.5-120.5 84q-54 23-118.5 28t-209.5 5h-254v-490h453v-110h-453v-598z"/><glyph unicode="Ñ" horiz-adv-x="1449" d="M166 0v1446h135l858-1237-10 1237h135v-1446h-135l-848 1249v-1249h-135zm221 1612q31 94 80 149 30 35 63 47 30 15 62 15 35 0 73-15.5t103-54.5q82-45 109-45 22 1 39 10t32 29 21.5 31 19.5 37l86-39q-18-45-43-86-64-105-153-105-16 0-35 4t-33.5 9-36.5 14.5-33 15-33.5 17-27.5 14.5q-73 39-102 39-24 0-48-17-17-13-29.5-30t-17.5-28.5-14-37.5z"/><glyph unicode="Ò" horiz-adv-x="1449" d="M102 727q0 366 193 576 90 96 199 139 102 41 235 41 318 0 483-242 56-82 96.5-210.5t39.5-299.5q0-147-41-297t-123-258q-97-124-228-174-110-39-227-39-258 0-420 168-39 40-72 91t-65.5 123.5-51 171-18.5 210.5zm146-4q0-29 1.5-58.5t11-97 26.5-125 53-125.5 86-116q121-115 297-115 194 0 311 131 46 50 79.5 117t50 124.5 26 121 11 94.5 1.5 57q1 32-2.5 77t-15 117.5-44.5 150.5-83 138q-63 71-127 105-88 45-201 45-87 0-160-26.5t-124.5-74-90-109-61.5-134.5-34-147-11-150zm143 1110h217l203-256h-119z"/><glyph unicode="Ó" horiz-adv-x="1449" d="M102 727q0 366 193 576 90 96 199 139 102 41 235 41 318 0 483-242 56-82 96.5-210.5t39.5-299.5q0-147-41-297t-123-258q-97-124-228-174-110-39-227-39-258 0-420 168-39 40-72 91t-65.5 123.5-51 171-18.5 210.5zm146-4q0-29 1.5-58.5t11-97 26.5-125 53-125.5 86-116q121-115 297-115 194 0 311 131 46 50 79.5 117t50 124.5 26 121 11 94.5 1.5 57q1 32-2.5 77t-15 117.5-44.5 150.5-83 138q-63 71-127 105-88 45-201 45-87 0-160-26.5t-124.5-74-90-109-61.5-134.5-34-147-11-150zm387 854l203 256h215l-301-256h-117z"/><glyph unicode="Ô" horiz-adv-x="1449" d="M102 727q0 366 193 576 90 96 199 139 102 41 235 41 318 0 483-242 56-82 96.5-210.5t39.5-299.5q0-147-41-297t-123-258q-97-124-228-174-110-39-227-39-258 0-420 168-39 40-72 91t-65.5 123.5-51 171-18.5 210.5zm146-4q0-29 1.5-58.5t11-97 26.5-125 53-125.5 86-116q121-115 297-115 194 0 311 131 46 50 79.5 117t50 124.5 26 121 11 94.5 1.5 57q1 32-2.5 77t-15 117.5-44.5 150.5-83 138q-63 71-127 105-88 45-201 45-87 0-160-26.5t-124.5-74-90-109-61.5-134.5-34-147-11-150zm225 858l215 252h86l213-252h-100l-160 115-156-115h-98z"/><glyph unicode="Õ" horiz-adv-x="1449" d="M102 727q0 366 193 576 90 96 199 139 102 41 235 41 318 0 483-242 56-82 96.5-210.5t39.5-299.5q0-147-41-297t-123-258q-97-124-228-174-110-39-227-39-258 0-420 168-39 40-72 91t-65.5 123.5-51 171-18.5 210.5zm146-4q0-29 1.5-58.5t11-97 26.5-125 53-125.5 86-116q121-115 297-115 194 0 311 131 46 50 79.5 117t50 124.5 26 121 11 94.5 1.5 57q1 32-2.5 77t-15 117.5-44.5 150.5-83 138q-63 71-127 105-88 45-201 45-87 0-160-26.5t-124.5-74-90-109-61.5-134.5-34-147-11-150zm139 889q31 94 80 149 30 35 63 47 30 15 62 15 35 0 73-15.5t103-54.5q82-45 109-45 22 1 39 10t32 29 21.5 31 19.5 37l86-39q-18-45-43-86-64-105-153-105-16 0-35 4t-33.5 9-36.5 14.5-33 15-33.5 17-27.5 14.5q-73 39-102 39-24 0-48-17-17-13-29.5-30t-17.5-28.5-14-37.5z"/><glyph unicode="Ö" horiz-adv-x="1449" d="M102 727q0 366 193 576 90 96 199 139 102 41 235 41 318 0 483-242 56-82 96.5-210.5t39.5-299.5q0-147-41-297t-123-258q-97-124-228-174-110-39-227-39-258 0-420 168-39 40-72 91t-65.5 123.5-51 171-18.5 210.5zm146-4q0-29 1.5-58.5t11-97 26.5-125 53-125.5 86-116q121-115 297-115 194 0 311 131 46 50 79.5 117t50 124.5 26 121 11 94.5 1.5 57q1 32-2.5 77t-15 117.5-44.5 150.5-83 138q-63 71-127 105-88 45-201 45-87 0-160-26.5t-124.5-74-90-109-61.5-134.5-34-147-11-150zm188 883v198h137v-198h-137zm449 0v198h137v-198h-137z"/><glyph unicode="×" horiz-adv-x="1482" d="M307 254l344 344-344 344 88 88 344-344 344 344 86-88-344-344 346-344-88-88-344 346-346-344z"/><glyph unicode="Ø" horiz-adv-x="1449" d="M102 725v38l3 55 7.5 72 14.5 80.5 24 89 36.5 89 50.5 88.5 68 80.5 87 71.5q144 94 342 94 271 0 426-172l123 151 80-63-137-168q35-60 59-114t46-157 22-221q0-39-1.5-75t-14.5-120-35.5-154-71.5-153-117-141q-154-133-391-133-248 0-408 160l-120-143-76 63 131 160q-18 27-23 37-125 208-125 485zm146 0q0-236 94-412l725 887q-26 47-84 88-36 25-72 41t-70 22-53 7.5-47 1.5q-106 0-184-29t-143-100q-166-174-166-506zm153-496q4-5 12.5-14t12.5-14q114-117 303-117 196 0 320 129 157 170 157 496 0 167-39 299-19 58-41 102z"/><glyph unicode="Ù" horiz-adv-x="1409" d="M164 706v740h135v-938q0-152 43-238 39-81 125-125 102-55 240-55 217 0 319 121 29 35 47 76t25 92 8.5 84 1.5 92v891h137v-658q0-199-4-299-3-115-27-203t-86-161q-141-162-419-162-227 0-371 113-64 51-105 119-48 84-58.5 185t-10.5 326zm205 1127h217l202-256h-116z"/><glyph unicode="Ú" horiz-adv-x="1409" d="M164 706v740h135v-938q0-152 43-238 39-81 125-125 102-55 240-55 217 0 319 121 29 35 47 76t25 92 8.5 84 1.5 92v891h137v-658q0-199-4-299-3-115-27-203t-86-161q-141-162-419-162-227 0-371 113-64 51-105 119-48 84-58.5 185t-10.5 326zm448 871l203 256h217l-303-256h-117z"/><glyph unicode="Û" horiz-adv-x="1409" d="M164 706v740h135v-938q0-152 43-238 39-81 125-125 102-55 240-55 217 0 319 121 29 35 47 76t25 92 8.5 84 1.5 92v891h137v-658q0-199-4-299-3-115-27-203t-86-161q-141-162-419-162-227 0-371 113-64 51-105 119-48 84-58.5 185t-10.5 326zm289 875l215 252h86l213-252h-101l-159 115-158-115h-96z"/><glyph unicode="Ü" horiz-adv-x="1409" d="M164 706v740h135v-938q0-152 43-238 39-81 125-125 102-55 240-55 217 0 319 121 29 35 47 76t25 92 8.5 84 1.5 92v891h137v-658q0-199-4-299-3-115-27-203t-86-161q-141-162-419-162-227 0-371 113-64 51-105 119-48 84-58.5 185t-10.5 326zm250 900v198h137v-198h-137zm448 0v198h137v-198h-137z"/><glyph unicode="Ý" horiz-adv-x="1280" d="M20 1446h162l447-719 465 719h166l-566-848v-598h-135v598zm529 131l203 256h217l-303-256h-117z"/><glyph unicode="Þ" horiz-adv-x="1280" d="M166 0v1446h131v-223h362q216 0 285-9 135-19 211-98 10-10 19-22 81-103 81-260 3-163-79-265-27-35-59.5-61t-73.5-41.5-73.5-24.5-86.5-12-84-3.5-93.5.5-89.5 1h-319v-428h-131zm131 549h309q31 0 74.5-.5t69-1 60.5 0 56.5 3 49 7 46.5 12 40 19 38 27.5 33 37q52 69 49 178 0 120-59 191-14 16-29.5 29t-35 22-35.5 15.5-42 10.5-43.5 6-51 3-53.5 1-61.5-.5-64.5-.5h-350v-559z"/><glyph unicode="ß" horiz-adv-x="1024" d="M151.5 978.5q-.5 41.5 0 60.5t2 57 4.5 62.5 9 55 15 54.5q38 106 127.5 160.5t206.5 54.5q74 0 137-23 98-37 151.5-127.5t53.5-199.5q0-153-98-238-63-54-144-66 89-14 152-53 89-59 131.5-169.5t42.5-229.5q0-155-68-260-94-148-264-148-110 0-221 64l2 137q1 0 10-6.5t21-14 29-17.5 36-18.5 39-16.5 42-12.5 42-4.5q37 0 81 19.5t75 72.5q45 76 45 207 0 115-41 199-86 180-344 180-12 0-33-1t-31-1v118q188 0 267 52 38 24 69 77.5t31 133.5q0 62-20 102-19 48-66.5 87.5t-132.5 39.5q-78 0-145-45-33-24-53.5-57.5t-28.5-83-10-75-3-83.5q-2-49-2-148v-874h-116v926q0 11-.5 52.5z"/><glyph unicode="à" horiz-adv-x="1024" d="M92 246q0 89 53 153 12 15 25.5 27.5t31 24 30 20 35.5 18 33 14.5 38 13.5 34.5 11 38.5 11.5 35 10q162 42 185 47l114 25v51q0 63-10 94-42 131-223 129-164 0-221-84-33-50-37-152l-133 23q23 115 57 170 41 62 121 105.5t205 43.5q86 0 169-24.5t130-79.5q12-14 21.5-31.5t15.5-30.5 10.5-36 7-33 3.5-38 1-34v-401q0-55 1-80.5t8.5-53 23.5-40.5q29-23 113-23v-96q-91 0-140.5 10.5t-79.5 40.5q-18 18-28 41t-12 39.5-3 46.5q-19-49-51-84-37-43-114-78.5t-181-35.5q-150 0-233 83-74 74-74 183zm117 2q0-34 18-70 16-31 42.5-52t56.5-28.5 47-9.5 33-2q60 0 122.5 22t114.5 65 76 97q26 59 26 172v74l-61-16q-27-7-78.5-20.5t-77.5-21-67-18.5-64.5-19-51-17.5-45.5-18.5-30-18q-61-45-61-119zm6 1182h227l230-287h-109z"/><glyph unicode="á" horiz-adv-x="1024" d="M92 246q0 89 53 153 12 15 25.5 27.5t31 24 30 20 35.5 18 33 14.5 38 13.5 34.5 11 38.5 11.5 35 10q162 42 185 47l114 25v51q0 63-10 94-42 131-223 129-164 0-221-84-33-50-37-152l-133 23q23 115 57 170 41 62 121 105.5t205 43.5q86 0 169-24.5t130-79.5q12-14 21.5-31.5t15.5-30.5 10.5-36 7-33 3.5-38 1-34v-401q0-55 1-80.5t8.5-53 23.5-40.5q29-23 113-23v-96q-91 0-140.5 10.5t-79.5 40.5q-18 18-28 41t-12 39.5-3 46.5q-19-49-51-84-37-43-114-78.5t-181-35.5q-150 0-233 83-74 74-74 183zm117 2q0-34 18-70 16-31 42.5-52t56.5-28.5 47-9.5 33-2q60 0 122.5 22t114.5 65 76 97q26 59 26 172v74l-61-16q-27-7-78.5-20.5t-77.5-21-67-18.5-64.5-19-51-17.5-45.5-18.5-30-18q-61-45-61-119zm217 895l227 287h230l-348-287h-109z"/><glyph unicode="â" horiz-adv-x="1024" d="M92 246q0 89 53 153 12 15 25.5 27.5t31 24 30 20 35.5 18 33 14.5 38 13.5 34.5 11 38.5 11.5 35 10q162 42 185 47l114 25v51q0 63-10 94-42 131-223 129-164 0-221-84-33-50-37-152l-133 23q23 115 57 170 41 62 121 105.5t205 43.5q86 0 169-24.5t130-79.5q12-14 21.5-31.5t15.5-30.5 10.5-36 7-33 3.5-38 1-34v-401q0-55 1-80.5t8.5-53 23.5-40.5q29-23 113-23v-96q-91 0-140.5 10.5t-79.5 40.5q-18 18-28 41t-12 39.5-3 46.5q-19-49-51-84-37-43-114-78.5t-181-35.5q-150 0-233 83-74 74-74 183zm117 2q0-34 18-70 16-31 42.5-52t56.5-28.5 47-9.5 33-2q60 0 122.5 22t114.5 65 76 97q26 59 26 172v74l-61-16q-27-7-78.5-20.5t-77.5-21-67-18.5-64.5-19-51-17.5-45.5-18.5-30-18q-61-45-61-119zm16 895l262 282h54l274-282h-104l-201 133-182-133h-103z"/><glyph unicode="ã" horiz-adv-x="1024" d="M92 246q0 89 53 153 12 15 25.5 27.5t31 24 30 20 35.5 18 33 14.5 38 13.5 34.5 11 38.5 11.5 35 10q162 42 185 47l114 25v51q0 63-10 94-42 131-223 129-164 0-221-84-33-50-37-152l-133 23q23 115 57 170 41 62 121 105.5t205 43.5q86 0 169-24.5t130-79.5q12-14 21.5-31.5t15.5-30.5 10.5-36 7-33 3.5-38 1-34v-401q0-55 1-80.5t8.5-53 23.5-40.5q29-23 113-23v-96q-91 0-140.5 10.5t-79.5 40.5q-18 18-28 41t-12 39.5-3 46.5q-19-49-51-84-37-43-114-78.5t-181-35.5q-150 0-233 83-74 74-74 183zm98 962q29 67 54 103 26 36 63 57.5t76 20.5q52 0 162-58 67-37 102-37 8 0 41 11 15 8 27.5 23t17.5 23.5 15 30.5l81-20q-35-75-60-109.5t-60-54.5q-40-20-76-20-8 0-17.5 1.5t-17.5 3.5-19 5.5-18 6-19.5 7.5-17.5 7.5-18.5 9-16.5 8l-17 8.5-15 8q-68 33-88 33t-37-10-26.5-23.5-29.5-52.5zm19-960q0-34 18-70 16-31 42.5-52t56.5-28.5 47-9.5 33-2q60 0 122.5 22t114.5 65 76 97q26 59 26 172v74l-61-16q-27-7-78.5-20.5t-77.5-21-67-18.5-64.5-19-51-17.5-45.5-18.5-30-18q-61-45-61-119z"/><glyph unicode="ä" horiz-adv-x="1024" d="M92 246q0 89 53 153 12 15 25.5 27.5t31 24 30 20 35.5 18 33 14.5 38 13.5 34.5 11 38.5 11.5 35 10q162 42 185 47l114 25v51q0 63-10 94-42 131-223 129-164 0-221-84-33-50-37-152l-133 23q23 115 57 170 41 62 121 105.5t205 43.5q86 0 169-24.5t130-79.5q12-14 21.5-31.5t15.5-30.5 10.5-36 7-33 3.5-38 1-34v-401q0-55 1-80.5t8.5-53 23.5-40.5q29-23 113-23v-96q-91 0-140.5 10.5t-79.5 40.5q-18 18-28 41t-12 39.5-3 46.5q-19-49-51-84-37-43-114-78.5t-181-35.5q-150 0-233 83-74 74-74 183zm117 2q0-34 18-70 16-31 42.5-52t56.5-28.5 47-9.5 33-2q60 0 122.5 22t114.5 65 76 97q26 59 26 172v74l-61-16q-27-7-78.5-20.5t-77.5-21-67-18.5-64.5-19-51-17.5-45.5-18.5-30-18q-61-45-61-119zm41 944v188h125v-188h-125zm352 0v188h125v-188h-125z"/><glyph unicode="å" horiz-adv-x="1024" d="M92 246q0 89 53 153 12 15 25.5 27.5t31 24 30 20 35.5 18 33 14.5 38 13.5 34.5 11 38.5 11.5 35 10q162 42 185 47l114 25v51q0 63-10 94-42 131-223 129-164 0-221-84-33-50-37-152l-133 23q23 115 57 170 41 62 121 105.5t205 43.5q86 0 169-24.5t130-79.5q12-14 21.5-31.5t15.5-30.5 10.5-36 7-33 3.5-38 1-34v-401q0-55 1-80.5t8.5-53 23.5-40.5q29-23 113-23v-96q-91 0-140.5 10.5t-79.5 40.5q-18 18-28 41t-12 39.5-3 46.5q-19-49-51-84-37-43-114-78.5t-181-35.5q-150 0-233 83-74 74-74 183zm117 2q0-34 18-70 16-31 42.5-52t56.5-28.5 47-9.5 33-2q60 0 122.5 22t114.5 65 76 97q26 59 26 172v74l-61-16q-27-7-78.5-20.5t-77.5-21-67-18.5-64.5-19-51-17.5-45.5-18.5-30-18q-61-45-61-119zm121 1046q0 68 48.5 115t115.5 47 114-48 47-116q0-67-47.5-114.5t-115.5-47.5q-67 0-114.5 48t-47.5 116zm73 0q0-14 9-34 4-10 12-19.5t26.5-20 41.5-10.5q34 0 58.5 25.5t24.5 60.5q0 36-25 61t-61 25q-37 0-61.5-25.5t-24.5-62.5z"/><glyph unicode="æ" horiz-adv-x="1705" d="M78 242q0 128 108 204 52 36 144.5 65.5t271.5 74.5l146 37v106q-3 78-52.5 119t-171.5 41q-138 0-207-47-73-51-73-183l-135 19q11 79 32 123 18 39 45.5 72t71.5 63.5 111.5 47.5 150.5 17q253 0 330-161 51 83 139 122t193 39q203 0 319-135 114-130 121-370v-11h-754q-12-194 78-297 25-32 66-55 82-51 184-51 44 0 96 14 62 17 115.5 63.5t103.5 143.5l111-22q-32-85-82-144t-94-90q-104-72-258-72-124 0-209.5 45.5t-130.5 102.5q-29 36-51 90-29-56-64-96-48-54-133.5-95.5t-208.5-41.5q-146 0-227 65-32 27-55 70-31 60-31 127zm119 4q0-64 45.5-110.5t150.5-45.5q51 0 96 10 94 24 152 72t82 96q25 53 25 166v80q-369-92-445-127-108-47-106-141zm671 340h611q-19 218-168 282-61 25-129 25-35 0-70-6t-77.5-26-75.5-52.5-58.5-90-32.5-132.5z"/><glyph unicode="ç" horiz-adv-x="980" d="M90 492q1 55 10 108.5t30.5 114.5 64.5 117 104 96q114 75 270 73 221-5 328-176 11-17 17-28t10.5-24.5l5.5-16.5-113-29q-31 83-105.5 123.5t-152.5 42.5q-59 1-115-19.5t-107.5-64.5-83-125.5-32.5-189.5q-1-60 8.5-116t33-111.5 60-96.5 95.5-65.5 133-22.5q53 1 96.5 15.5t73.5 40.5 49 50.5 37 57.5l123-27q-20-41-35-63-53-81-118.5-119.5t-147.5-52.5q-50-7-70-9l-37-71q48 6 58 6h2q60 0 100.5-34.5t40.5-96.5q1-84-64.5-127t-146.5-41q-44 0-74 6v55h15q18-4 55-4 52 1 81 24t29 58q0 30-27 53t-75 23q-36 0-78-21v52l70 120q-2 0-15.5 1.5t-28 3.5-34 5.5-40 9-38.5 13.5q-117 51-190 174.5t-72 307.5z"/><glyph unicode="è" d="M90 498q0 112 31 198 48 139 160.5 222t259.5 83q189 0 313-139 58-65 92.5-159.5t34.5-184.5v-31h-758q-2-89 19-163 7-28 18.5-55.5t36.5-62.5 57-60 84.5-43 116.5-17q211 0 313 205l113-33q-43-86-76-127-131-156-348-156-127 0-225 52-66 34-114.5 90.5t-72 108.5-37 114.5-16 95-2.5 62.5zm72 932h227l229-287h-108zm63-842h617q-8 72-32.5 128t-56 88.5-71 53.5-74 28-69.5 7q-60 0-110-18t-83-48-52-54.5-32-49.5q-27-61-37-135z"/><glyph unicode="é" d="M90 498q0 112 31 198 48 139 160.5 222t259.5 83q189 0 313-139 58-65 92.5-159.5t34.5-184.5v-31h-758q-2-89 19-163 7-28 18.5-55.5t36.5-62.5 57-60 84.5-43 116.5-17q211 0 313 205l113-33q-43-86-76-127-131-156-348-156-127 0-225 52-66 34-114.5 90.5t-72 108.5-37 114.5-16 95-2.5 62.5zm135 90h617q-8 72-32.5 128t-56 88.5-71 53.5-74 28-69.5 7q-60 0-110-18t-83-48-52-54.5-32-49.5q-27-61-37-135zm221 555l230 287h229l-350-287h-109z"/><glyph unicode="ê" d="M90 498q0 112 31 198 48 139 160.5 222t259.5 83q189 0 313-139 58-65 92.5-159.5t34.5-184.5v-31h-758q-2-89 19-163 7-28 18.5-55.5t36.5-62.5 57-60 84.5-43 116.5-17q211 0 313 205l113-33q-43-86-76-127-131-156-348-156-127 0-225 52-66 34-114.5 90.5t-72 108.5-37 114.5-16 95-2.5 62.5zm135 90h617q-8 72-32.5 128t-56 88.5-71 53.5-74 28-69.5 7q-60 0-110-18t-83-48-52-54.5-32-49.5q-27-61-37-135zm23 555l260 282h55l275-282h-105l-203 133-182-133h-100z"/><glyph unicode="ë" d="M90 498q0 112 31 198 48 139 160.5 222t259.5 83q189 0 313-139 58-65 92.5-159.5t34.5-184.5v-31h-758q-2-89 19-163 7-28 18.5-55.5t36.5-62.5 57-60 84.5-43 116.5-17q211 0 313 205l113-33q-43-86-76-127-131-156-348-156-127 0-225 52-66 34-114.5 90.5t-72 108.5-37 114.5-16 95-2.5 62.5zm135 90h617q-8 72-32.5 128t-56 88.5-71 53.5-74 28-69.5 7q-60 0-110-18t-83-48-52-54.5-32-49.5q-27-61-37-135zm72 604v188h125v-188h-125zm352 0v188h125v-188h-125z"/><glyph unicode="ì" horiz-adv-x="425" d="M-158 1430h228l229-287h-109zm312-1430v977h118v-977h-118z"/><glyph unicode="í" horiz-adv-x="425" d="M127 1143l229 287h230l-350-287h-109zm27-1143v977h118v-977h-118z"/><glyph unicode="î" horiz-adv-x="425" d="M-74 1143l262 282h54l276-282h-106l-201 133-182-133h-103zm228-1143v977h118v-977h-118z"/><glyph unicode="ï" horiz-adv-x="425" d="M-23 1192v188h123v-188h-123zm177-1192v977h118v-977h-118zm174 1192v188h125v-188h-125z"/><glyph unicode="ð" d="M90 477q0 57 8.5 113.5t29.5 121 63 123.5 102 101q104 74 248 72 54-1 98-14t77.5-36.5 55-45 47.5-54.5q-40 168-137 320l-326-105-32 76 311 98q-16 22-32.5 42t-28 33-27.5 30-23.5 24.5l-24.5 24.5-22 22 88 54q99-105 168-197l187 59 30-77-166-54 9-14q182-316 184-643 0-147-31-256-14-43-34.5-83t-56.5-83.5-81-75.5-112-52-144-19q-108 2-192 45t-134 114-75.5 156-26.5 180zm129 4q0-104 25-181.5t68.5-122.5 96-66.5 113.5-22.5q64-1 120 20.5t103.5 67 75 125.5 27.5 186v9q0 205-85.5 307t-223.5 102q-116 0-195-67-125-107-125-357z"/><glyph unicode="ñ" d="M154 0v977h120v-174q19 59 70 108 91 86 238 86 65 0 118-16t88-43 56.5-53.5 34.5-55.5q24-50 29-105.5t5-180.5v-543h-120v508q0 81-1 118t-6 79-16 69q-22 55-74 84-52 31-133 31-72 0-129-27-53-26-93-77.5t-54-108.5q-13-61-13-248v-428h-120zm59 1208q24 65 51 103 26 36 63.5 57.5t78.5 20.5q31 0 65-13t94-45q67-37 103-37 19 0 41 11 6 3 11.5 7.5t9.5 7.5 8.5 10 6.5 9 7 11 5.5 10 5.5 12l5 10 84-20q-35-74-61-110t-60-54q-35-20-76-20-11 0-23 2.5t-22 5-24 7.5-22 8.5-23.5 11-21 10-21.5 11-19 9.5q-7 3-22.5 10.5t-21 10-15.5 6.5-17 5-14 1q-18 0-35-10-17-9-26.5-21.5t-25.5-44.5q-1-2-1.5-3.5t-1.5-3-2-3.5z"/><glyph unicode="ò" d="M90 477q0 134 45 248 27 71 70 123.5t85 81 92 45.5 85 21.5 70 4.5q169 0 286-108 150-144 154-399 0-111-27-197-46-150-157.5-236t-264.5-86q-214 0-338 164-100 137-100 338zm72 953h227l229-287h-108zm57-953q0-237 129-338 71-57 182-57 46 0 88 11.5t84.5 40.5 74 73 51 114.5 20.5 159.5q1 114-25 198.5t-72 130.5-100 67.5-116 21.5q-102 0-177-55-139-104-139-367z"/><glyph unicode="ó" d="M90 477q0 134 45 248 27 71 70 123.5t85 81 92 45.5 85 21.5 70 4.5q169 0 286-108 150-144 154-399 0-111-27-197-46-150-157.5-236t-264.5-86q-214 0-338 164-100 137-100 338zm129 0q0-237 129-338 71-57 182-57 46 0 88 11.5t84.5 40.5 74 73 51 114.5 20.5 159.5q1 114-25 198.5t-72 130.5-100 67.5-116 21.5q-102 0-177-55-139-104-139-367zm227 666l230 287h229l-350-287h-109z"/><glyph unicode="ô" d="M90 477q0 134 45 248 27 71 70 123.5t85 81 92 45.5 85 21.5 70 4.5q169 0 286-108 150-144 154-399 0-111-27-197-46-150-157.5-236t-264.5-86q-214 0-338 164-100 137-100 338zm129 0q0-237 129-338 71-57 182-57 46 0 88 11.5t84.5 40.5 74 73 51 114.5 20.5 159.5q1 114-25 198.5t-72 130.5-100 67.5-116 21.5q-102 0-177-55-139-104-139-367zm29 666l260 282h55l275-282h-105l-203 133-182-133h-100z"/><glyph unicode="õ" d="M90 477q0 134 45 248 27 71 70 123.5t85 81 92 45.5 85 21.5 70 4.5q169 0 286-108 150-144 154-399 0-111-27-197-46-150-157.5-236t-264.5-86q-214 0-338 164-100 137-100 338zm123 731q24 65 51 103 26 36 63.5 57.5t78.5 20.5q31 0 65-13t94-45q67-37 103-37 19 0 41 11 6 3 11.5 7.5t9.5 7.5 8.5 10 6.5 9 7 11 5.5 10 5.5 12l5 10 84-20q-35-74-61-110t-60-54q-35-20-76-20-11 0-23 2.5t-22 5-24 7.5-22 8.5-23.5 11-21 10-21.5 11-19 9.5q-7 3-22.5 10.5t-21 10-15.5 6.5-17 5-14 1q-18 0-35-10-17-9-26.5-21.5t-25.5-44.5q-1-2-1.5-3.5t-1.5-3-2-3.5zm6-731q0-237 129-338 71-57 182-57 46 0 88 11.5t84.5 40.5 74 73 51 114.5 20.5 159.5q1 114-25 198.5t-72 130.5-100 67.5-116 21.5q-102 0-177-55-139-104-139-367z"/><glyph unicode="ö" d="M90 477q0 134 45 248 27 71 70 123.5t85 81 92 45.5 85 21.5 70 4.5q169 0 286-108 150-144 154-399 0-111-27-197-46-150-157.5-236t-264.5-86q-214 0-338 164-100 137-100 338zm129 0q0-237 129-338 71-57 182-57 46 0 88 11.5t84.5 40.5 74 73 51 114.5 20.5 159.5q1 114-25 198.5t-72 130.5-100 67.5-116 21.5q-102 0-177-55-139-104-139-367zm76 715v188h125v-188h-125zm352 0v188h125v-188h-125z"/><glyph unicode="÷" horiz-adv-x="1482" d="M162 537v122h1159v-122h-1159zm512-342v192h139v-192h-139zm0 616v193h139v-193h-139z"/><glyph unicode="ø" d="M90 485q1 100 30 191.5t83.5 164.5 140.5 116.5 191 43.5q113 0 204-53l47 84 80-47-53-92q35-28 64-68 100-134 100-333 0-125-39-228-13-33-29-64t-50.5-74-76.5-74.5-107.5-54-142.5-22.5q-88 0-159 27-29 13-51 27l-43-74-76 45 43 78q-43 49-51 61-105 153-105 346zm123-4q2-168 92-299l383 674-24 12q-57 29-125 29-89 0-168-53-53-38-88.5-93.5t-49-114.5-17-92-3.5-63zm160-358q74-41 153-41 147 0 232 98 94 106 94 307 0 188-92 314z"/><glyph unicode="ù" d="M154 498v479h122v-506q0-171 17-238 39-143 203-143 151 0 231 109 14 18 24.5 40t17.5 39 11.5 45.5 7 42 4 48 1.5 43.5v520h120v-977h-120v176q-19-44-39-72-91-127-273-127-56 0-114 19-66 22-115.5 72t-71.5 116q-26 88-26 314zm8 932h227l229-287h-108z"/><glyph unicode="ú" d="M154 498v479h122v-506q0-171 17-238 39-143 203-143 151 0 231 109 14 18 24.5 40t17.5 39 11.5 45.5 7 42 4 48 1.5 43.5v520h120v-977h-120v176q-19-44-39-72-91-127-273-127-56 0-114 19-66 22-115.5 72t-71.5 116q-26 88-26 314zm292 645l230 287h229l-350-287h-109z"/><glyph unicode="û" d="M154 498v479h122v-506q0-171 17-238 39-143 203-143 151 0 231 109 14 18 24.5 40t17.5 39 11.5 45.5 7 42 4 48 1.5 43.5v520h120v-977h-120v176q-19-44-39-72-91-127-273-127-56 0-114 19-66 22-115.5 72t-71.5 116q-26 88-26 314zm94 645l260 282h55l275-282h-105l-203 133-182-133h-100z"/><glyph unicode="ü" d="M154 498v479h122v-506q0-171 17-238 39-143 203-143 151 0 231 109 14 18 24.5 40t17.5 39 11.5 45.5 7 42 4 48 1.5 43.5v520h120v-977h-120v176q-19-44-39-72-91-127-273-127-56 0-114 19-66 22-115.5 72t-71.5 116q-26 88-26 314zm141 694v188h125v-188h-125zm352 0v188h125v-188h-125z"/><glyph unicode="ý" horiz-adv-x="894" d="M23-334q66-47 127-47 26 0 43 7t33.5 30.5 25 42.5 29.5 68q6 15 19 45.5t19 46.5l52 141-338 977h117l284-832 318 832h122l-440-1118q-71-181-90-218-49-96-112-123-34-14-80-14-73 0-129 39v123zm339 1477l228 287h229l-348-287h-109z"/><glyph unicode="þ" d="M154-518v1964h118v-629q19 43 47 76t59.5 51.5 58.5 30.5 58 16 43.5 5 28.5 1q61 0 114-15.5t90.5-39.5 69-58 50.5-66 35-69.5 23-62 12-49.5q16-92 16-143 1-70-13-140.5t-46.5-140.5-79.5-123-119.5-84.5-159.5-28.5q-111 3-186 58t-101 129v-682h-118zm118 977q0-44 3.5-78.5t14.5-81 37-87.5 66-71q66-49 154-49 72 0 128 29t89 74 54 103 28 110.5 6 103.5q-2 99-28.5 174t-70.5 118-96.5 63.5-111.5 19.5q-69-1-120.5-28.5t-79.5-66.5-45.5-93.5-22.5-100-5-96.5v-43z"/><glyph unicode="ÿ" horiz-adv-x="894" d="M23-334q66-47 127-47 26 0 43 7t33.5 30.5 25 42.5 29.5 68q6 15 19 45.5t19 46.5l52 141-338 977h117l284-832 318 832h122l-440-1118q-71-181-90-218-49-96-112-123-34-14-80-14-73 0-129 39v123zm188 1526v188h125v-188h-125zm352 0v188h125v-188h-125z"/><glyph unicode="Œ" horiz-adv-x="2174" d="M102 721q0 150 43 285 29 89 73.5 162.5t94 121.5 108.5 84 112 55.5 110 31 96.5 14.5 77.5 2q99 0 258-31h975v-119h-836v-524h758v-127h-758v-553h887v-123h-1005q-140-37-283-37-169 0-303 57-105 45-185 119.5t-128 167.5-71.5 196.5-23.5 217.5zm144-12q0-27 1-50t6.5-68 15.5-84.5 30.5-90 48-92 71.5-84.5 99-74q138-80 330-80 114 0 227 37v1204q-2 0-48 7t-94 11.5-95 4.5q-164 0-274-51t-173-123q-60-69-102.5-186.5t-42.5-280.5z"/><glyph unicode="œ" horiz-adv-x="1835" d="M90 481q0 96 25 185 11 39 26 75t49.5 86 78.5 86 115.5 62 158.5 26q174 0 280-96 69-66 95-135 31 56 59 88 20 23 45 44.5t64.5 45.5 95 38.5 118.5 14.5q176 0 289-102 68-61 114-163t46-249h-760q-16-184 82-301 45-57 119-86 52-18 117-18 139 0 233 86 55 50 92 125l117-31q-39-82-82-133-133-154-360-154-71 0-132 17t-100 40-72.5 58-50.5 61-34 58q-1-1-6-13t-11.5-25-13.5-24q-29-46-72-80.5t-81-51.5-82.5-26.5-69-11.5-47.5-2q-190 0-312 131-52 56-92.5 150.5t-40.5 224.5zm131 13q0-95 29-191 22-68 59.5-115t81-68.5 78.5-29.5 70-8q28 0 60 5t84 29 87 66q90 107 90 299 0 199-88 307-50 64-121 91-46 16-104 16-143 0-230-98-96-108-96-303zm768 96h621q-5 63-21 104-11 30-28 58t-49 63-85 56.5-120 21.5q-134 0-215.5-83.5t-102.5-219.5z"/><glyph unicode="Ÿ" horiz-adv-x="1280" d="M20 1446h162l447-719 465 719h166l-566-848v-598h-135v598zm328 160v198h137v-198h-137zm449 0v198h137v-198h-137z"/><glyph unicode="ˆ" horiz-adv-x="555" d="M-18 1143l262 282h53l276-282h-104l-201 133-182-133h-104z"/><glyph unicode="˜" horiz-adv-x="555" d="M-43 1208q31 71 53 103 28 36 65 57.5t75 20.5q33 0 66.5-12.5t94.5-45.5q72-37 103-37 19 0 41 11 8 4 15.5 10t12 11 10 14 7.5 13l7.5 15 6.5 14 84-20q-33-73-59-108.5t-62-55.5q-40-20-74-20-59 2-178 65-8 4-23 11t-20.5 9.5-15 6.5-16 5-13.5 1q-20 0-37-10-16-9-26-23t-24-42q0-2-.5-3t-1.5-2.5-1.5-3-1.5-2.5z"/><glyph horiz-adv-x="929"/><glyph horiz-adv-x="1858"/><glyph horiz-adv-x="929"/><glyph horiz-adv-x="1858"/><glyph horiz-adv-x="619"/><glyph horiz-adv-x="464"/><glyph horiz-adv-x="309"/><glyph horiz-adv-x="309"/><glyph horiz-adv-x="232"/><glyph horiz-adv-x="371"/><glyph horiz-adv-x="103"/><glyph unicode="‐" horiz-adv-x="698" d="M78 541v123h543v-123h-543z"/><glyph unicode="‑" horiz-adv-x="698" d="M78 541v123h543v-123h-543z"/><glyph unicode="‒" horiz-adv-x="698" d="M78 541v123h543v-123h-543z"/><glyph unicode="–" horiz-adv-x="1157" d="M78 541v123h1001v-123h-1001z"/><glyph unicode="—" horiz-adv-x="1726" d="M78 541v123h1571v-123h-1571z"/><glyph unicode="‘" horiz-adv-x="342" d="M90 885v190q0 127 17 205t77 166l66-45q-46-78-62-133t-16-144h78v-239h-160z"/><glyph unicode="’" horiz-adv-x="342" d="M90 932q47 76 62.5 131t15.5 145h-78v238h162v-201q0-124-17-196.5t-77-163.5z"/><glyph unicode="‚" horiz-adv-x="342" d="M90 0v238h162v-201q0-125-17-198.5t-77-162.5l-68 48q47 76 62.5 131t15.5 145h-78z"/><glyph unicode="“" horiz-adv-x="598" d="M90 885v190q0 127 17 204t77 167l68-45q-80-100-80-277h80v-239h-162zm256 0v227q0 105 19.5 179t74.5 155l68-45q-47-76-62.5-131t-15.5-146h78v-239h-162z"/><glyph unicode="”" horiz-adv-x="598" d="M90 932q47 77 62.5 131t15.5 145h-78v238h162v-205q0-188-53-287-6-12-20.5-34.5t-20.5-34.5zm256 0q7 8 33 55 27 55 36 102.5t9 118.5h-78v238h162v-246q0-101-19.5-166.5t-74.5-148.5z"/><glyph unicode="„" horiz-adv-x="598" d="M90 0v238h162v-207q0-186-53-285-6-12-20.5-35t-20.5-35l-68 48q47 77 62.5 131t15.5 145h-78zm256 0v238h162v-246q0-99-20-165.5t-74-150.5l-68 48q7 8 33 55 28 57 36.5 103.5t8.5 117.5h-78z"/><glyph unicode="•" horiz-adv-x="681" d="M115 506l2 446h450v-446h-452z"/><glyph unicode="…" horiz-adv-x="2048" d="M256 0v168h168v-168h-168zm682 0v168h170v-168h-170zm684 0v168h170v-168h-170z"/><glyph horiz-adv-x="371"/><glyph unicode="‹" horiz-adv-x="512" d="M88 633l244 379 96-62-203-317 203-289-96-63z"/><glyph unicode="›" horiz-adv-x="512" d="M84 342l203 317-203 289 96 64 244-353-244-378z"/><glyph horiz-adv-x="464"/><glyph unicode="€" horiz-adv-x="1298" d="M43 555l41 109h106q0 18 5 120h-152l39 109h125q33 253 196.5 404t417.5 151q285 0 436-178l-55-135q-122 196-401 196-98 0-177.5-33t-134.5-93-90.5-138.5-52.5-173.5h766l-39-109h-737q-4-20-4-59 0-41 2-61h692l-39-109h-645q26-212 149-342.5t330-130.5q109 0 217.5 43t173.5 121v-158q-96-69-188.5-97t-214.5-28q-263 0-420.5 161.5t-189.5 430.5h-156z"/><glyph unicode="™" horiz-adv-x="1398" d="M45 1362v84h504v-84h-201v-596h-98v596h-205zm580-596v680h137l176-557 174 557h139v-680h-94l4 584-182-584h-86l-182 582 8-582h-94z"/><glyph unicode="◼" horiz-adv-x="972" d="M0 0v973h973v-973h-973z"/></font>
</defs>
</svg>
